<svg version="1.1" xmlns="http://www.w3.org/2000/svg" xmlns:xlink="http://www.w3.org/1999/xlink" width="214.05065" height="109.13031" viewBox="0,0,214.05065,109.13031"><g transform="translate(-133.84968,-124.55775)"><g data-paper-data="{&quot;isPaintingLayer&quot;:true}" fill-rule="nonzero" stroke-linejoin="miter" stroke-miterlimit="10" stroke-dasharray="" stroke-dashoffset="0" style="mix-blend-mode: normal"><g fill="#000000" stroke="none" stroke-width="1" stroke-linecap="butt"><path d="M328.11715,233.68806c-1.97231,0 -3.73838,-0.4837 -5.29823,-1.45111c-1.55984,-0.97491 -2.78973,-2.29852 -3.68964,-3.97085c-0.89241,-1.67983 -1.33862,-3.56589 -1.33862,-5.65819c0,-2.12229 0.44621,-4.01961 1.33862,-5.69194c0.89991,-1.67983 2.12229,-3.00345 3.66714,-3.97085c1.54485,-0.97491 3.31842,-1.46236 5.32072,-1.46236c1.52985,0 2.90597,0.31122 4.12835,0.93366c0.72408,0.36426 1.36525,0.81403 1.92355,1.34932v-12.44072h5.78193v31.92434h-5.73693v-1.93491c-0.5593,0.55278 -1.20799,1.02152 -1.94606,1.40621c-1.23738,0.64494 -2.62099,0.9674 -4.15084,0.9674zM329.0958,228.34484c1.08739,0 2.03605,-0.23998 2.84597,-0.71993c0.80992,-0.48745 1.43986,-1.16613 1.88981,-2.03605c0.45745,-0.86991 0.68618,-1.87856 0.68618,-3.02595c0,-1.11739 -0.22873,-2.11105 -0.68618,-2.98096c-0.44995,-0.86991 -1.07989,-1.54484 -1.88981,-2.0248c-0.80992,-0.48745 -1.74358,-0.73118 -2.80097,-0.73118c-1.09489,0 -2.0473,0.25123 -2.85722,0.75368c-0.80242,0.49495 -1.43235,1.16988 -1.88981,2.0248c-0.45745,0.85492 -0.68619,1.84107 -0.68619,2.95846c0,1.14739 0.22873,2.15604 0.68619,3.02595c0.45745,0.86991 1.09489,1.5486 1.91231,2.03605c0.82492,0.47995 1.75482,0.71993 2.78972,0.71993z"/><path d="M201.01287,233.68806c-1.53735,0 -2.92471,-0.32246 -4.16209,-0.9674c-0.73279,-0.38427 -1.37772,-0.8524 -1.93481,-1.4044v1.93309h-5.73693v-31.92434h5.78193v12.44251c0.56054,-0.53608 1.20548,-0.98645 1.93481,-1.35111c1.23738,-0.62244 2.60975,-0.93366 4.1171,-0.93366c1.97231,0 3.73838,0.48745 5.29823,1.46236c1.55984,0.96741 2.78597,2.29102 3.67838,3.97086c0.89991,1.67234 1.34987,3.56965 1.34987,5.69194c0,2.0923 -0.44996,3.97835 -1.34987,5.65819c-0.89241,1.67234 -2.11854,2.99595 -3.67838,3.97086c-1.55984,0.96741 -3.32592,1.45111 -5.29823,1.45111zM200.03422,228.34484c1.0649,0 1.99855,-0.23998 2.80097,-0.71993c0.80992,-0.48745 1.4436,-1.16613 1.90106,-2.03605c0.45746,-0.86991 0.68618,-1.87856 0.68618,-3.02595c0,-1.11739 -0.22873,-2.11105 -0.68618,-2.98096c-0.45746,-0.86991 -1.09864,-1.54484 -1.92356,-2.0248c-0.81742,-0.48745 -1.75857,-0.73118 -2.82347,-0.73118c-1.0574,0 -1.99105,0.24373 -2.80097,0.73118c-0.80992,0.47995 -1.44361,1.15488 -1.90106,2.0248c-0.45746,0.86991 -0.68618,1.86357 -0.68618,2.98096c0,1.14739 0.22872,2.15604 0.68618,3.02595c0.45746,0.86991 1.09864,1.5486 1.92356,2.03605c0.82492,0.47995 1.76608,0.71993 2.82347,0.71993z"/><path d="M146.48218,233.68806c-2.44476,0 -4.61579,-0.5362 -6.5131,-1.60859c-1.89731,-1.0724 -3.39342,-2.54974 -4.4883,-4.43206c-1.08739,-1.88981 -1.63109,-4.0271 -1.63109,-6.41187v-19.02187h6.0069v19.20185c0,1.38736 0.28497,2.57975 0.85492,3.57715c0.57745,0.9974 1.37236,1.76983 2.38476,2.31727c1.0199,0.54745 2.14854,0.82117 3.38592,0.82117c1.26737,0 2.38476,-0.27372 3.35217,-0.82117c0.97491,-0.54745 1.74733,-1.31987 2.31727,-2.31727c0.57745,-0.9974 0.86616,-2.17479 0.86616,-3.53215v-19.24685h6.04065v19.06687c0,2.38476 -0.5437,4.51455 -1.63109,6.38937c-1.08739,1.86731 -2.56475,3.33716 -4.43206,4.40956c-1.86731,1.0724 -4.03835,1.60859 -6.5131,1.60859z"/><path d="M236.06865,233.68806c-2.15229,0 -4.09085,-0.4912 -5.81567,-1.4736c-1.71733,-0.9899 -3.08594,-2.32852 -4.10584,-4.01586c-1.0124,-1.69483 -1.5186,-3.58839 -1.5186,-5.68069c0,-2.0848 0.49871,-3.9596 1.49611,-5.62444c1.0049,-1.66484 2.37351,-2.98845 4.10584,-3.97086c1.73983,-0.9899 3.67089,-1.48485 5.79318,-1.48485c2.17479,0 4.12084,0.49495 5.83817,1.48485c1.72483,0.98241 3.08595,2.30602 4.08335,3.97086c1.0049,1.66484 1.50735,3.53964 1.50735,5.62444c0,2.0923 -0.50245,3.98586 -1.50735,5.68069c-0.9974,1.68733 -2.35852,3.02596 -4.08335,4.01586c-1.71733,0.98241 -3.64839,1.4736 -5.79318,1.4736zM236.02365,228.29984c1.08739,0 2.05105,-0.23998 2.89096,-0.71993c0.83991,-0.48745 1.48485,-1.16613 1.93481,-2.03605c0.45746,-0.86991 0.68618,-1.86356 0.68618,-2.98095c0,-1.11739 -0.23622,-2.10354 -0.70868,-2.95846c-0.46496,-0.85492 -1.10989,-1.52235 -1.93481,-2.0023c-0.82492,-0.48745 -1.78108,-0.73118 -2.86847,-0.73118c-1.0649,0 -2.0098,0.24373 -2.83472,0.73118c-0.81742,0.47995 -1.46236,1.14739 -1.93481,2.0023c-0.47245,0.85492 -0.70868,1.84107 -0.70868,2.95846c0,1.11739 0.23622,2.11104 0.70868,2.98095c0.47245,0.86991 1.11739,1.5486 1.93481,2.03605c0.82492,0.47995 1.76982,0.71993 2.83472,0.71993z"/><path d="M305.42335,233.68806c-2.2348,0 -4.2221,-0.4762 -5.96193,-1.42861c-1.73233,-0.9599 -3.10845,-2.27603 -4.12835,-3.94836c-1.0124,-1.67983 -1.5186,-3.59589 -1.5186,-5.74818c0,-2.11479 0.4912,-4.0046 1.47361,-5.66944c0.9899,-1.66484 2.33602,-2.98845 4.03835,-3.97086c1.70983,-0.9899 3.6109,-1.48485 5.70321,-1.48485c2.0623,0 3.88086,0.46495 5.45571,1.39486c1.57484,0.92241 2.80848,2.18604 3.70089,3.79088c0.89991,1.60484 1.34987,3.42341 1.34987,5.45571c0,0.38246 -0.0225,0.77242 -0.0675,1.16988c-0.04499,0.39746 -0.12374,0.84742 -0.23622,1.34987l-15.58733,0.03911c0.11483,0.43342 0.26734,0.84034 0.45755,1.22076c0.48745,0.9524 1.18489,1.68733 2.0923,2.20478c0.91492,0.50995 1.97607,0.76493 3.18345,0.76493c1.09489,0 2.08104,-0.18373 2.95846,-0.5512c0.88491,-0.36747 1.64984,-0.91866 2.29478,-1.65358l3.40841,3.39717c-1.0349,1.20738 -2.29478,2.12229 -3.77963,2.74473c-1.48485,0.61494 -3.09719,0.9224 -4.83702,0.9224zM309.5067,218.90702c-0.39746,-0.85492 -0.97116,-1.5111 -1.72108,-1.96856c-0.74993,-0.45746 -1.66858,-0.68618 -2.75597,-0.68618c-1.14738,0 -2.14855,0.25872 -3.00348,0.77617c-0.85492,0.50995 -1.5111,1.22987 -1.96855,2.15978c-0.16905,0.34937 -0.30635,0.72203 -0.41188,1.11796l10.31742,-0.03048c-0.11311,-0.50483 -0.26526,-0.96106 -0.45645,-1.36871z"/><path d="M286.49097,233.24935l-7.81798,-10.40622v10.40622h-5.78193v-31.92434h5.78193v20.38189l7.77299,-9.78544h6.65934l-8.36998,10.14187l8.81994,11.18602z"/><path d="M178.708,233.24935v-12.22754c0,-1.26737 -0.39746,-2.29853 -1.19238,-3.09345c-0.79492,-0.79492 -1.82232,-1.19238 -3.08219,-1.19238c-0.82492,0 -1.56359,0.17623 -2.21603,0.52869c-0.64494,0.35246 -1.15114,0.85492 -1.5186,1.50736c-0.36747,0.64494 -0.5512,1.39486 -0.5512,2.24977v12.22754h-5.78193v-21.32789h5.78193v1.99988c0.52656,-0.54019 1.134,-1.00059 1.82232,-1.38119c1.28238,-0.70493 2.73347,-1.0574 4.35331,-1.0574c1.55984,0 2.95846,0.38996 4.19584,1.16989c1.23738,0.77992 2.20854,1.79607 2.91347,3.04844c0.70493,1.25238 1.05739,2.59849 1.05739,4.03835v13.50992z"/><path d="M261.23608,233.68806c-2.18228,0 -4.14334,-0.4837 -5.88317,-1.45111c-1.73233,-0.97491 -3.10095,-2.29852 -4.10585,-3.97085c-0.9974,-1.67983 -1.4961,-3.56589 -1.4961,-5.65819c0,-2.12229 0.4987,-4.01961 1.4961,-5.69194c1.0049,-1.67983 2.38102,-3.01095 4.12834,-3.99335c1.75482,-0.9899 3.70839,-1.48485 5.86067,-1.48485c1.67233,0 3.21343,0.31122 4.62329,0.93366c1.41736,0.61494 2.63974,1.4961 3.66714,2.64349l-3.70088,3.75713c-0.56245,-0.62244 -1.23363,-1.09489 -2.01355,-1.41736c-0.77992,-0.32247 -1.63859,-0.48371 -2.57599,-0.48371c-1.06489,0 -2.01731,0.24373 -2.85722,0.73118c-0.83242,0.47995 -1.49235,1.13989 -1.9798,1.9798c-0.48745,0.83991 -0.73117,1.83357 -0.73117,2.98096c0,1.11739 0.24372,2.11104 0.73117,2.98095c0.48745,0.86991 1.14738,1.5486 1.9798,2.03605c0.83992,0.47995 1.79233,0.71993 2.85722,0.71993c0.9674,0 1.84107,-0.16873 2.62099,-0.5062c0.77992,-0.33747 1.4511,-0.82867 2.01355,-1.4736l3.74588,3.74588c-1.08739,1.17738 -2.33977,2.07729 -3.75713,2.69974c-1.40986,0.61494 -2.95096,0.9224 -4.62329,0.9224z"/><path d="M215.14038,233.24935v-31.92434h5.78193v31.92434z"/></g><g fill="#000000" stroke="none" stroke-width="1" stroke-linecap="butt"><path d="M213.38934,184.23291c-2.96193,0 -5.62766,-0.73479 -7.9972,-2.20436c-2.36954,-1.48096 -4.22644,-3.49165 -5.5707,-6.03207c-1.33286,-2.55181 -1.9993,-5.4169 -1.9993,-8.59527c0,-3.22394 0.66644,-6.10612 1.9993,-8.64654c1.34426,-2.55181 3.20116,-4.5625 5.5707,-6.03207c2.36954,-1.48096 5.03527,-2.22144 7.9972,-2.22144c2.32397,0 4.39732,0.47277 6.22004,1.41831c1.21669,0.61968 2.27044,1.40228 3.16128,2.34781v-3.09968h8.7149v32.39889h-8.7149v-3.14719c-0.89084,0.94314 -1.94459,1.73588 -3.16128,2.37823c-1.82272,0.95693 -3.89607,1.43539 -6.22004,1.43539zM214.99561,176.1161c2.46068,0 4.44858,-0.81453 5.96372,-2.44359c1.51514,-1.62906 2.27271,-3.74228 2.27271,-6.33965c0,-1.69741 -0.34745,-3.20685 -1.04237,-4.52832c-0.68352,-1.32147 -1.64045,-2.34676 -2.87079,-3.07585c-1.23034,-0.74048 -2.67143,-1.11072 -4.32327,-1.11072c-1.61766,0 -3.04166,0.37024 -4.27201,1.11072c-1.21894,0.72909 -2.17587,1.75437 -2.87078,3.07585c-0.69492,1.32147 -1.04237,2.83092 -1.04237,4.52832c0,1.74298 0.34745,3.2752 1.04237,4.59668c0.69492,1.32147 1.65184,2.35245 2.87078,3.09293c1.23034,0.72909 2.65434,1.09364 4.27201,1.09364z"/><path d="M151.00012,184.23291c-3.79354,0 -7.04597,-0.64365 -9.75727,-1.93095c-2.69991,-1.29869 -5.14919,-3.24672 -7.34785,-5.8441l6.04916,-6.03207c1.37843,1.83411 2.98471,3.25242 4.81882,4.25492c1.83411,1.0025 4.07265,1.50375 6.7156,1.50375c2.36954,0 4.25491,-0.46707 5.65613,-1.40122c1.41261,-0.94554 2.11892,-2.24423 2.11892,-3.89607c0,-1.424 -0.40442,-2.58029 -1.21325,-3.46887c-0.79744,-0.89997 -1.8569,-1.66323 -3.17837,-2.28979c-1.32147,-0.62656 -2.77396,-1.19617 -4.35745,-1.70881c-1.58349,-0.52403 -3.17268,-1.11642 -4.76756,-1.77715c-1.58349,-0.67213 -3.03597,-1.50944 -4.35745,-2.51194c-1.32147,-1.01389 -2.38663,-2.31258 -3.19546,-3.89607c-0.79744,-1.59488 -1.19616,-3.59988 -1.19616,-6.01498c0,-2.8594 0.68921,-5.29159 2.06765,-7.29658c1.38983,-2.01639 3.29229,-3.56 5.7074,-4.63085c2.41511,-1.07085 5.14349,-1.60627 8.18516,-1.60627c3.22394,0 6.12891,0.60377 8.71489,1.81133c2.59738,1.19616 4.72199,2.75687 6.37383,4.68212l-6.03207,6.04916c-1.38983,-1.52653 -2.81383,-2.64865 -4.27201,-3.36634c-1.44679,-0.71769 -3.08723,-1.07654 -4.92135,-1.07654c-2.09613,0 -3.74797,0.40442 -4.95553,1.21325c-1.20756,0.80883 -1.81133,1.97082 -1.81133,3.48596c0,1.29869 0.39873,2.35245 1.19617,3.16128c0.80883,0.79744 1.87399,1.48665 3.19546,2.06765c1.32147,0.581 2.77395,1.1449 4.35744,1.69172c1.58349,0.53543 3.16698,1.1392 4.75047,1.81133c1.59488,0.66073 3.05306,1.53223 4.37454,2.61447c1.32147,1.07085 2.38093,2.44359 3.17837,4.11821c0.80883,1.67462 1.21325,3.74228 1.21325,6.20296c0,4.38593 -1.54362,7.83201 -4.63085,10.33825c-3.08723,2.49485 -7.31367,3.74228 -12.67931,3.74228z"/><path d="M235.90966,151.16758h9.53512l7.40361,20.54994l7.68511,-20.54994h9.58638l-14.42229,32.6723l-5.89536,13.27739h-9.33006l7.71976,-16.33594z"/><path d="M179.30347,183.56647v-24.6751h-7.57v-7.72378h7.57v-13.48245h8.80033v13.48245h7.57v7.72378h-7.57v24.67511z"/></g><path d="M283.45037,183.86057c0.85861,-3.12914 2.00157,-7.29461 3.13332,-11.41921c1.42176,-5.18151 2.82581,-10.29851 3.62617,-13.21538c0.76993,-2.80594 1.5698,-7.54024 3.04772,-11.75711c0.5471,-1.56103 3.05158,-6.84525 4.18362,-8.70178c0.57176,-0.93769 2.56842,-5.18226 6.29285,-8.27555c3.08521,-2.56239 7.41982,-3.84943 10.53912,-4.17959c3.00707,0.13652 5.53449,0.66061 7.47258,1.57569c1.91125,0.90241 4.88735,7.26634 5.2012,9.48091c0.49407,3.48622 0.72526,7.49092 0.81927,10.50653c0.23166,7.43105 0.60959,17.81272 1.04858,23.16294c0.33977,4.14096 1.28385,10.61716 1.96175,14.22634c0.42583,2.26715 -1.67554,3.65919 -3.4753,3.55634c-2.23273,-0.12759 -7.83931,-0.44797 -11.00691,-0.62897c-1.36056,-0.07774 -2.92785,-3.13962 -3.33522,-5.00671c-0.38274,-1.75421 -1.17158,-6.36973 -1.61507,-8.40242c-0.1932,-0.88552 -1.04661,-1.56614 -2.06445,-1.70006c-1.91708,-0.25225 -4.87041,-0.64084 -5.96255,-0.78455c-0.8067,-0.10614 -2.13438,0.77072 -2.65448,2.29121c-1.28448,3.75514 -3.66436,10.64374 -4.71572,13.23931c-0.97379,2.40405 -3.75594,3.03443 -4.51219,2.85359c-1.07743,-0.25765 -3.9875,-0.74845 -6.28916,-1.12261c-1.73377,-0.28185 -2.54951,-2.58512 -1.69512,-5.6989z" fill="#ffffff" stroke="#000000" stroke-width="3.5" stroke-linecap="round"/><path d="M307.90033,138.83972l-1.5,8.25" fill="none" stroke="#000000" stroke-width="3.5" stroke-linecap="round"/><path d="M317.40033,140.33972l-1.5,8.75" fill="none" stroke="#000000" stroke-width="3.5" stroke-linecap="round"/><path d="M304.65033,154.08972l9.25,2.75" fill="none" stroke="#000000" stroke-width="3.5" stroke-linecap="round"/><path d="M285.15033,139.71472c0,3.38274 -2.79822,6.125 -6.25,6.125c-3.45178,0 -6.25,-2.74226 -6.25,-6.125c0,-3.38274 2.79822,-6.125 6.25,-6.125c3.45178,0 6.25,2.74226 6.25,6.125z" fill="#ffffff" stroke="#000000" stroke-width="3.5" stroke-linecap="butt"/><path d="M346.15033,176.60722c0,2.61369 -1.93363,4.7325 -4.31888,4.7325c-2.38525,0 -4.31888,-2.11881 -4.31888,-4.7325c0,-2.61369 1.93363,-4.7325 4.31888,-4.7325c2.38525,0 4.31888,2.11881 4.31888,4.7325z" fill="#ffffff" stroke="#000000" stroke-width="3.5" stroke-linecap="butt"/></g></g></svg>